<svg xmlns="http://www.w3.org/2000/svg" version="1.1" xmlns:xlink="http://www.w3.org/1999/xlink" xmlns:svgjs="http://svgjs.dev/svgjs" width="2000" height="2341" viewBox="0 0 2000 2341"><g transform="matrix(1,0,0,1,-1.8980564441365004,0.9477732793520772)"><svg viewBox="0 0 211 247" data-background-color="#000000" preserveAspectRatio="xMidYMid meet" height="2341" width="2000" xmlns="http://www.w3.org/2000/svg" xmlns:xlink="http://www.w3.org/1999/xlink"><g id="tight-bounds" transform="matrix(1,0,0,1,0.2002449548564016,-0.09999999999999432)"><svg viewBox="0 0 210.5995100902872 247.2" height="247.2" width="210.5995100902872"><g><svg viewBox="0 0 273.57921376536314 321.12506631095334" height="247.2" width="210.5995100902872"><g><svg viewBox="0 0 273.57921376536314 321.12506631095334" height="321.12506631095334" width="273.57921376536314"><g id="textblocktransform"><svg viewBox="0 0 273.57921376536314 321.12506631095334" height="321.12506631095334" width="273.57921376536314" id="textblock"><g><svg viewBox="0 0 273.57921376536314 245.672304" height="245.672304" width="273.57921376536314"><g transform="matrix(1,0,0,1,0,0)"><svg width="273.57921376536314" viewBox="3.7 -26.15 29.900000000000002 26.849999999999998" height="245.672304" data-palette-color="#ffffff"><g class="wordmark-text-0" data-fill-palette-color="primary" id="text-0"><path d="M15.75-26.15L15.75-26.15Q25.4-26.15 31.45-23.75L31.45-23.75Q33.6-19.45 33.6-15.05L33.6-15.05Q33.6-9.4 29.75-5.25L29.75-5.25Q24.15 0.7 14.6 0.7L14.6 0.7Q11.3 0.7 5.65-0.05L5.65-0.05Q3.7-10.1 3.7-18.6L3.7-18.6Q3.7-21.55 4-25L4-25Q12.05-26.15 15.75-26.15ZM17.25-22.4L17.25-22.4Q16.35-13 16.35-8.93 16.35-4.85 16.5-2.3L16.5-2.3Q19.2-3.75 20.73-7.18 22.25-10.6 22.25-14.13 22.25-17.65 20.98-19.9 19.7-22.15 17.25-22.4Z" fill="#ffffff" data-fill-palette-color="primary"></path></g></svg></g></svg></g><g transform="matrix(1,0,0,1,0,303.669638839104)"><svg viewBox="0 0 259.900253077095 17.455427471849333" height="17.455427471849333" width="259.900253077095"><g transform="matrix(1,0,0,1,0,0)"><svg width="259.900253077095" viewBox="1.1 -35.05 693.02 46.55" height="17.455427471849333" data-palette-color="#ffffff"><path d="M13.95 0L1.1 0 1.1-0.5 2.1-0.9Q3.1-1.25 3.43-1.85 3.75-2.45 3.75-3.45L3.75-3.45 3.75-29.55Q3.75-30.55 3.45-31.15 3.15-31.75 2.1-32.1L2.1-32.1 1.1-32.5 1.1-33 13.95-33 13.95-32.5 12.95-32.1Q11.95-31.75 11.63-31.15 11.3-30.55 11.3-29.55L11.3-29.55 11.3-3.45Q11.3-2.45 11.63-1.88 11.95-1.3 12.95-0.9L12.95-0.9 13.95-0.5 13.95 0ZM36.3-1.15L35.5 0.65 27.05 0 27.05-0.5 27.55-0.6Q29.5-1.05 29.5-3.1L29.5-3.1 29.5-29.85Q29.5-30.9 29.17-31.45 28.84-32 27.84-32.2L27.84-32.2 27.14-32.4 27.14-32.9 36.05-35.05 36.65-34.6 36.45-27.55 36.45-22.5Q38.09-23.65 40.05-24.23 42-24.8 44-24.8L44-24.8Q46.84-24.8 49.05-23.48 51.25-22.15 52.52-19.38 53.8-16.6 53.8-12.25L53.8-12.25Q53.8-7.9 52.37-5.03 50.95-2.15 48.57-0.7 46.2 0.75 43.34 0.75L43.34 0.75Q41.5 0.75 39.62 0.25 37.75-0.25 36.3-1.15L36.3-1.15ZM40.84-0.95L40.84-0.95Q42.45-0.95 43.64-1.95 44.84-2.95 45.55-5.38 46.25-7.8 46.25-12.05L46.25-12.05Q46.25-16.3 45.59-18.6 44.95-20.9 43.77-21.8 42.59-22.7 40.95-22.7L40.95-22.7Q38.59-22.7 36.59-21.4L36.59-21.4 36.59-2.2Q37.55-1.6 38.55-1.28 39.55-0.95 40.84-0.95ZM65.04 0.75L65.04 0.75Q63.09 0.75 61.47 0 59.84-0.75 58.92-2.43 57.99-4.1 58.04-6.85L58.04-6.85 58.19-19.7Q58.19-20.85 57.79-21.35 57.39-21.85 56.54-22.05L56.54-22.05 55.94-22.25 55.94-22.75 64.89-24.5 65.39-24 65.14-16.9 65.14-4.85Q65.14-3.25 66.07-2.5 66.99-1.75 68.39-1.75L68.39-1.75Q69.79-1.75 70.89-2.15 71.99-2.55 73.09-3.35L73.09-3.35 73.29-19.65Q73.29-20.8 72.94-21.28 72.59-21.75 71.64-21.95L71.64-21.95 71.14-22.1 71.14-22.6 79.89-24.5 80.39-24 80.24-16.9 80.24-3.35Q80.24-2.25 80.54-1.65 80.84-1.05 81.84-0.65L81.84-0.65 82.34-0.5 82.34 0 73.59 0.5 73.14-2.45Q71.49-1.1 69.57-0.18 67.64 0.75 65.04 0.75ZM90.34-27.4L90.34-27.4Q88.64-27.4 87.47-28.48 86.29-29.55 86.29-31.2L86.29-31.2Q86.29-32.9 87.47-33.95 88.64-35 90.34-35L90.34-35Q92.04-35 93.19-33.95 94.34-32.9 94.34-31.2L94.34-31.2Q94.34-29.55 93.19-28.48 92.04-27.4 90.34-27.4ZM96.14 0L84.44 0 84.44-0.5 85.14-0.7Q86.14-1 86.52-1.6 86.89-2.2 86.89-3.2L86.89-3.2 86.89-18.85Q86.89-19.9 86.52-20.43 86.14-20.95 85.14-21.15L85.14-21.15 84.44-21.3 84.44-21.8 93.59-24.75 94.09-24.25 93.94-17.15 93.94-3.15Q93.94-2.15 94.31-1.55 94.69-0.95 95.64-0.65L95.64-0.65 96.14-0.5 96.14 0ZM110.44 0L98.49 0 98.49-0.5 99.09-0.7Q100.89-1.3 100.89-3.2L100.89-3.2 100.89-29.95Q100.89-30.95 100.49-31.48 100.09-32 99.09-32.25L99.09-32.25 98.44-32.4 98.44-32.9 107.59-35.05 108.19-34.6 107.99-27.6 107.99-10.5Q107.99-8.65 108.01-6.83 108.04-5 108.04-3.2L108.04-3.2Q108.04-2.2 108.44-1.58 108.84-0.95 109.79-0.65L109.79-0.65 110.44-0.5 110.44 0ZM123.24 0.75L123.24 0.75Q120.29 0.75 117.94-0.58 115.59-1.9 114.21-4.67 112.84-7.45 112.84-11.8L112.84-11.8Q112.84-16.2 114.39-19.07 115.94-21.95 118.48-23.38 121.04-24.8 124.04-24.8L124.04-24.8Q125.79-24.8 127.39-24.45 128.99-24.1 130.24-23.4L130.24-23.4 130.24-29.9Q130.24-30.95 129.91-31.45 129.59-31.95 128.53-32.15L128.53-32.15 127.59-32.35 127.59-32.85 136.69-35.05 137.24-34.6 137.03-27.6 137.03-3.15Q137.03-2.15 137.38-1.53 137.74-0.9 138.69-0.65L138.69-0.65 139.13-0.5 139.13 0 130.59 0.55 130.13-1.25Q128.78-0.35 127.06 0.2 125.34 0.75 123.24 0.75ZM126.14-1.1L126.14-1.1Q128.24-1.1 129.99-2.35L129.99-2.35 129.99-22.2Q128.13-23.4 126.19-23.4L126.19-23.4Q123.79-23.4 122.09-20.63 120.39-17.85 120.39-11.9L120.39-11.9Q120.39-5.95 121.99-3.53 123.59-1.1 126.14-1.1ZM162.83 0.75L162.83 0.75Q159.88 0.75 157.53-0.58 155.18-1.9 153.81-4.67 152.43-7.45 152.43-11.8L152.43-11.8Q152.43-16.2 153.98-19.07 155.53-21.95 158.08-23.38 160.63-24.8 163.63-24.8L163.63-24.8Q165.38-24.8 166.98-24.45 168.58-24.1 169.83-23.4L169.83-23.4 169.83-29.9Q169.83-30.95 169.51-31.45 169.18-31.95 168.13-32.15L168.13-32.15 167.18-32.35 167.18-32.85 176.28-35.05 176.83-34.6 176.63-27.6 176.63-3.15Q176.63-2.15 176.98-1.53 177.33-0.9 178.28-0.65L178.28-0.65 178.73-0.5 178.73 0 170.18 0.55 169.73-1.25Q168.38-0.35 166.66 0.2 164.93 0.75 162.83 0.75ZM165.73-1.1L165.73-1.1Q167.83-1.1 169.58-2.35L169.58-2.35 169.58-22.2Q167.73-23.4 165.78-23.4L165.78-23.4Q163.38-23.4 161.68-20.63 159.98-17.85 159.98-11.9L159.98-11.9Q159.98-5.95 161.58-3.53 163.18-1.1 165.73-1.1ZM188.23 0.75L188.23 0.75Q185.33 0.75 183.35-0.9 181.38-2.55 181.38-5.65L181.38-5.65Q181.38-8 183.78-9.98 186.18-11.95 191.33-12.95L191.33-12.95Q192.13-13.1 193.13-13.28 194.13-13.45 195.23-13.65L195.23-13.65 195.23-17.6Q195.23-21 194.4-22.38 193.58-23.75 191.83-23.75L191.83-23.75Q190.63-23.75 189.93-22.98 189.23-22.2 189.03-20.3L189.03-20.3 188.93-19.75Q188.83-17.6 187.88-16.6 186.93-15.6 185.53-15.6L185.53-15.6Q184.23-15.6 183.38-16.4 182.53-17.2 182.53-18.55L182.53-18.55Q182.53-20.6 183.95-22 185.38-23.4 187.73-24.1 190.08-24.8 192.83-24.8L192.83-24.8Q197.28-24.8 199.7-22.63 202.13-20.45 202.13-15.55L202.13-15.55 202.13-4.5Q202.13-2.25 204.23-2.25L204.23-2.25 205.33-2.25 205.78-1.85Q204.83-0.65 203.7 0 202.58 0.65 200.53 0.65L200.53 0.65Q198.33 0.65 197.05-0.38 195.78-1.4 195.38-3.1L195.38-3.1Q193.88-1.5 192.3-0.38 190.73 0.75 188.23 0.75ZM191.28-2.3L191.28-2.3Q192.28-2.3 193.15-2.78 194.03-3.25 195.23-4.25L195.23-4.25 195.23-12.65Q194.73-12.55 194.23-12.45 193.73-12.35 193.08-12.25L193.08-12.25Q190.78-11.65 189.4-10.23 188.03-8.8 188.03-6.4L188.03-6.4Q188.03-4.35 188.98-3.33 189.93-2.3 191.28-2.3ZM216.33 0.75L216.33 0.75Q213.13 0.75 211.35-0.85 209.58-2.45 209.58-5.95L209.58-5.95 209.58-23.05 206.13-23.05 206.13-23.55 207.33-23.75Q208.88-24.1 210-24.75 211.13-25.4 212.23-26.5L212.23-26.5 216.33-31.05 216.83-31.05 216.68-24.05 222.28-24.05 222.28-23.05 216.63-23.05 216.63-5.05Q216.63-3.3 217.4-2.4 218.18-1.5 219.38-1.5L219.38-1.5Q220.43-1.5 221.23-2.02 222.03-2.55 222.83-3.45L222.83-3.45 223.33-2.95Q222.33-1.25 220.58-0.25 218.83 0.75 216.33 0.75ZM232.17 0.75L232.17 0.75Q229.27 0.75 227.3-0.9 225.32-2.55 225.32-5.65L225.32-5.65Q225.32-8 227.72-9.98 230.12-11.95 235.27-12.95L235.27-12.95Q236.07-13.1 237.07-13.28 238.07-13.45 239.17-13.65L239.17-13.65 239.17-17.6Q239.17-21 238.35-22.38 237.52-23.75 235.77-23.75L235.77-23.75Q234.57-23.75 233.87-22.98 233.17-22.2 232.97-20.3L232.97-20.3 232.87-19.75Q232.77-17.6 231.82-16.6 230.87-15.6 229.47-15.6L229.47-15.6Q228.17-15.6 227.32-16.4 226.47-17.2 226.47-18.55L226.47-18.55Q226.47-20.6 227.9-22 229.32-23.4 231.67-24.1 234.02-24.8 236.77-24.8L236.77-24.8Q241.22-24.8 243.65-22.63 246.07-20.45 246.07-15.55L246.07-15.55 246.07-4.5Q246.07-2.25 248.17-2.25L248.17-2.25 249.27-2.25 249.72-1.85Q248.77-0.65 247.65 0 246.52 0.65 244.47 0.65L244.47 0.65Q242.27 0.65 241-0.38 239.72-1.4 239.32-3.1L239.32-3.1Q237.82-1.5 236.25-0.38 234.67 0.75 232.17 0.75ZM235.22-2.3L235.22-2.3Q236.22-2.3 237.1-2.78 237.97-3.25 239.17-4.25L239.17-4.25 239.17-12.65Q238.67-12.55 238.17-12.45 237.67-12.35 237.02-12.25L237.02-12.25Q234.72-11.65 233.35-10.23 231.97-8.8 231.97-6.4L231.97-6.4Q231.97-4.35 232.92-3.33 233.87-2.3 235.22-2.3ZM264.37-12L251.77-12 251.77-13.35 264.37-13.35 264.37-12ZM277.97 0.75L277.97 0.75Q275.02 0.75 272.67-0.58 270.32-1.9 268.94-4.67 267.57-7.45 267.57-11.8L267.57-11.8Q267.57-16.2 269.12-19.07 270.67-21.95 273.22-23.38 275.77-24.8 278.77-24.8L278.77-24.8Q280.52-24.8 282.12-24.45 283.72-24.1 284.97-23.4L284.97-23.4 284.97-29.9Q284.97-30.95 284.64-31.45 284.32-31.95 283.27-32.15L283.27-32.15 282.32-32.35 282.32-32.85 291.42-35.05 291.97-34.6 291.77-27.6 291.77-3.15Q291.77-2.15 292.12-1.53 292.47-0.9 293.42-0.65L293.42-0.65 293.87-0.5 293.87 0 285.32 0.55 284.87-1.25Q283.52-0.35 281.79 0.2 280.07 0.75 277.97 0.75ZM280.87-1.1L280.87-1.1Q282.97-1.1 284.72-2.35L284.72-2.35 284.72-22.2Q282.87-23.4 280.92-23.4L280.92-23.4Q278.52-23.4 276.82-20.63 275.12-17.85 275.12-11.9L275.12-11.9Q275.12-5.95 276.72-3.53 278.32-1.1 280.87-1.1ZM309.02 0L296.07 0 296.07-0.5 296.82-0.7Q297.82-1 298.19-1.6 298.57-2.2 298.57-3.15L298.57-3.15 298.57-18.8Q298.57-19.9 298.19-20.43 297.82-20.95 296.82-21.15L296.82-21.15 296.07-21.35 296.07-21.85 304.67-24.75 305.17-24.25 305.62-19.95 305.62-19.55Q306.32-20.95 307.44-22.13 308.57-23.3 309.94-24.05 311.32-24.8 312.67-24.8L312.67-24.8Q314.57-24.8 315.57-23.75 316.57-22.7 316.57-21.1L316.57-21.1Q316.57-19.4 315.59-18.48 314.62-17.55 313.27-17.55L313.27-17.55Q311.17-17.55 309.57-19.65L309.57-19.65 309.47-19.75Q308.97-20.45 308.32-20.53 307.67-20.6 307.12-19.9L307.12-19.9Q306.62-19.45 306.29-18.82 305.97-18.2 305.67-17.4L305.67-17.4 305.67-3.45Q305.67-1.45 307.42-0.95L307.42-0.95 309.02-0.5 309.02 0ZM324.11-27.4L324.11-27.4Q322.41-27.4 321.24-28.48 320.06-29.55 320.06-31.2L320.06-31.2Q320.06-32.9 321.24-33.95 322.41-35 324.11-35L324.11-35Q325.81-35 326.96-33.95 328.11-32.9 328.11-31.2L328.11-31.2Q328.11-29.55 326.96-28.48 325.81-27.4 324.11-27.4ZM329.91 0L318.21 0 318.21-0.5 318.91-0.7Q319.91-1 320.29-1.6 320.66-2.2 320.66-3.2L320.66-3.2 320.66-18.85Q320.66-19.9 320.29-20.43 319.91-20.95 318.91-21.15L318.91-21.15 318.21-21.3 318.21-21.8 327.36-24.75 327.86-24.25 327.71-17.15 327.71-3.15Q327.71-2.15 328.09-1.55 328.46-0.95 329.41-0.65L329.41-0.65 329.91-0.5 329.91 0ZM346.21 0.15L343.31 0.15 334.46-21.1Q333.76-22.8 332.06-23.35L332.06-23.35 331.36-23.55 331.36-24.05 344.31-24.05 344.31-23.55 343.41-23.35Q341.46-22.85 342.21-20.75L342.21-20.75 347.46-6.8 352.36-20.65Q352.76-21.65 352.56-22.3 352.36-22.95 351.36-23.25L351.36-23.25 350.11-23.55 350.11-24.05 357.36-24.05 357.36-23.55 355.91-23.2Q354.96-22.95 354.44-22.45 353.91-21.95 353.56-20.95L353.56-20.95 346.21 0.15ZM371.16-24.8L371.16-24.8Q374.41-24.8 376.71-23.48 379.01-22.15 380.23-19.88 381.46-17.6 381.46-14.7L381.46-14.7Q381.46-14.15 381.41-13.58 381.36-13 381.21-12.55L381.21-12.55 366.31-12.55Q366.36-7.15 368.23-4.78 370.11-2.4 373.81-2.4L373.81-2.4Q376.31-2.4 377.86-3.2 379.41-4 380.76-5.55L380.76-5.55 381.26-5.1Q379.71-2.35 377.13-0.8 374.56 0.75 370.96 0.75L370.96 0.75Q367.41 0.75 364.66-0.78 361.91-2.3 360.36-5.15 358.81-8 358.81-11.95L358.81-11.95Q358.81-16.05 360.61-18.93 362.41-21.8 365.23-23.3 368.06-24.8 371.16-24.8ZM371.01-23.8L371.01-23.8Q369.56-23.8 368.53-22.93 367.51-22.05 366.93-19.83 366.36-17.6 366.31-13.55L366.31-13.55 374.86-13.55Q375.36-19 374.46-21.4 373.56-23.8 371.01-23.8ZM395.71 0L383.96 0 383.96-0.5 384.66-0.7Q386.41-1.2 386.41-3.15L386.41-3.15 386.41-18.8Q386.41-19.9 386.06-20.43 385.71-20.95 384.71-21.15L384.71-21.15 383.96-21.35 383.96-21.85 392.51-24.75 393.01-24.25 393.41-21.25Q395.16-22.8 397.36-23.8 399.56-24.8 401.71-24.8L401.71-24.8Q405.01-24.8 406.78-23 408.56-21.2 408.56-17.5L408.56-17.5 408.56-3.1Q408.56-1.15 410.46-0.65L410.46-0.65 410.91-0.5 410.91 0 399.11 0 399.11-0.5 399.76-0.7Q401.51-1.25 401.51-3.15L401.51-3.15 401.51-19.1Q401.51-22.3 398.31-22.3L398.31-22.3Q396.11-22.3 393.51-20.1L393.51-20.1 393.51-3.1Q393.51-1.15 395.26-0.65L395.26-0.65 395.71-0.5 395.71 0ZM431.05 0.75L431.05 0.75Q428.15 0.75 426.18-0.9 424.2-2.55 424.2-5.65L424.2-5.65Q424.2-8 426.6-9.98 429-11.95 434.15-12.95L434.15-12.95Q434.95-13.1 435.95-13.28 436.95-13.45 438.05-13.65L438.05-13.65 438.05-17.6Q438.05-21 437.23-22.38 436.4-23.75 434.65-23.75L434.65-23.75Q433.45-23.75 432.75-22.98 432.05-22.2 431.85-20.3L431.85-20.3 431.75-19.75Q431.65-17.6 430.7-16.6 429.75-15.6 428.35-15.6L428.35-15.6Q427.05-15.6 426.2-16.4 425.35-17.2 425.35-18.55L425.35-18.55Q425.35-20.6 426.78-22 428.2-23.4 430.55-24.1 432.9-24.8 435.65-24.8L435.65-24.8Q440.1-24.8 442.53-22.63 444.95-20.45 444.95-15.55L444.95-15.55 444.95-4.5Q444.95-2.25 447.05-2.25L447.05-2.25 448.15-2.25 448.6-1.85Q447.65-0.65 446.53 0 445.4 0.65 443.35 0.65L443.35 0.65Q441.15 0.65 439.88-0.38 438.6-1.4 438.2-3.1L438.2-3.1Q436.7-1.5 435.13-0.38 433.55 0.75 431.05 0.75ZM434.1-2.3L434.1-2.3Q435.1-2.3 435.98-2.78 436.85-3.25 438.05-4.25L438.05-4.25 438.05-12.65Q437.55-12.55 437.05-12.45 436.55-12.35 435.9-12.25L435.9-12.25Q433.6-11.65 432.23-10.23 430.85-8.8 430.85-6.4L430.85-6.4Q430.85-4.35 431.8-3.33 432.75-2.3 434.1-2.3ZM461.8 11.5L449.65 11.5 449.65 11 450.25 10.8Q452.1 10.3 452.1 8.4L452.1 8.4 452.1-18.8Q452.1-19.9 451.72-20.45 451.35-21 450.35-21.2L450.35-21.2 449.65-21.35 449.65-21.85 458.15-24.75 458.65-24.25 459.1-22.7Q460.75-23.7 462.77-24.25 464.8-24.8 466.95-24.8L466.95-24.8Q471.25-24.8 473.77-21.53 476.3-18.25 476.3-12.15L476.3-12.15Q476.3-6.15 473.52-2.7 470.75 0.75 465.7 0.75L465.7 0.75Q461.75 0.75 459.05-0.4L459.05-0.4 459.05 8.25Q459.05 10.25 460.85 10.75L460.85 10.75 461.8 11 461.8 11.5ZM463.3-0.7L463.3-0.7Q465.8-0.7 467.27-3.3 468.75-5.9 468.75-11.95L468.75-11.95Q468.75-18 467.35-20.43 465.95-22.85 463.3-22.85L463.3-22.85Q461.45-22.85 459.2-21.65L459.2-21.65 459.2-1.5Q461.1-0.7 463.3-0.7ZM490.69 11.5L478.55 11.5 478.55 11 479.15 10.8Q481 10.3 481 8.4L481 8.4 481-18.8Q481-19.9 480.62-20.45 480.25-21 479.25-21.2L479.25-21.2 478.55-21.35 478.55-21.85 487.05-24.75 487.55-24.25 488-22.7Q489.65-23.7 491.67-24.25 493.69-24.8 495.85-24.8L495.85-24.8Q500.15-24.8 502.67-21.53 505.19-18.25 505.19-12.15L505.19-12.15Q505.19-6.15 502.42-2.7 499.65 0.75 494.6 0.75L494.6 0.75Q490.65 0.75 487.94-0.4L487.94-0.4 487.94 8.25Q487.94 10.25 489.75 10.75L489.75 10.75 490.69 11 490.69 11.5ZM492.19-0.7L492.19-0.7Q494.69-0.7 496.17-3.3 497.65-5.9 497.65-11.95L497.65-11.95Q497.65-18 496.25-20.43 494.85-22.85 492.19-22.85L492.19-22.85Q490.35-22.85 488.1-21.65L488.1-21.65 488.1-1.5Q490-0.7 492.19-0.7ZM519.54 0L507.59 0 507.59-0.5 508.19-0.7Q509.99-1.3 509.99-3.2L509.99-3.2 509.99-29.95Q509.99-30.95 509.59-31.48 509.19-32 508.19-32.25L508.19-32.25 507.54-32.4 507.54-32.9 516.69-35.05 517.29-34.6 517.09-27.6 517.09-10.5Q517.09-8.65 517.12-6.83 517.14-5 517.14-3.2L517.14-3.2Q517.14-2.2 517.54-1.58 517.94-0.95 518.89-0.65L518.89-0.65 519.54-0.5 519.54 0ZM527.74-27.4L527.74-27.4Q526.04-27.4 524.86-28.48 523.69-29.55 523.69-31.2L523.69-31.2Q523.69-32.9 524.86-33.95 526.04-35 527.74-35L527.74-35Q529.44-35 530.59-33.95 531.74-32.9 531.74-31.2L531.74-31.2Q531.74-29.55 530.59-28.48 529.44-27.4 527.74-27.4ZM533.54 0L521.84 0 521.84-0.5 522.54-0.7Q523.54-1 523.91-1.6 524.29-2.2 524.29-3.2L524.29-3.2 524.29-18.85Q524.29-19.9 523.91-20.43 523.54-20.95 522.54-21.15L522.54-21.15 521.84-21.3 521.84-21.8 530.99-24.75 531.49-24.25 531.34-17.15 531.34-3.15Q531.34-2.15 531.71-1.55 532.09-0.95 533.04-0.65L533.04-0.65 533.54-0.5 533.54 0ZM548.14 0.75L548.14 0.75Q544.74 0.75 541.96-0.73 539.19-2.2 537.56-5.03 535.94-7.85 535.94-11.95L535.94-11.95Q535.94-16 537.71-18.88 539.49-21.75 542.46-23.28 545.44-24.8 548.99-24.8L548.99-24.8Q551.89-24.8 553.89-23.85 555.89-22.9 556.94-21.38 557.99-19.85 557.99-18.2L557.99-18.2Q557.99-16.8 557.14-16.03 556.29-15.25 554.94-15.25L554.94-15.25Q553.49-15.25 552.59-16.3 551.69-17.35 551.54-19.05L551.54-19.05Q551.49-20.15 551.59-20.93 551.69-21.7 551.59-22.5L551.59-22.5Q551.39-23.35 550.96-23.63 550.54-23.9 549.79-23.9L549.79-23.9Q546.74-23.9 545.06-21.25 543.39-18.6 543.39-12.8L543.39-12.8Q543.39-7.75 545.26-5.08 547.14-2.4 551.04-2.4L551.04-2.4Q553.39-2.4 554.84-3.25 556.29-4.1 557.64-5.8L557.64-5.8 558.14-5.4Q556.89-2.45 554.29-0.85 551.69 0.75 548.14 0.75ZM567.73 0.75L567.73 0.75Q564.83 0.75 562.86-0.9 560.88-2.55 560.88-5.65L560.88-5.65Q560.88-8 563.28-9.98 565.68-11.95 570.83-12.95L570.83-12.95Q571.63-13.1 572.63-13.28 573.63-13.45 574.73-13.65L574.73-13.65 574.73-17.6Q574.73-21 573.91-22.38 573.08-23.75 571.33-23.75L571.33-23.75Q570.13-23.75 569.43-22.98 568.73-22.2 568.53-20.3L568.53-20.3 568.43-19.75Q568.33-17.6 567.38-16.6 566.43-15.6 565.03-15.6L565.03-15.6Q563.73-15.6 562.88-16.4 562.03-17.2 562.03-18.55L562.03-18.55Q562.03-20.6 563.46-22 564.88-23.4 567.23-24.1 569.58-24.8 572.33-24.8L572.33-24.8Q576.78-24.8 579.21-22.63 581.63-20.45 581.63-15.55L581.63-15.55 581.63-4.5Q581.63-2.25 583.73-2.25L583.73-2.25 584.83-2.25 585.28-1.85Q584.33-0.65 583.21 0 582.08 0.65 580.03 0.65L580.03 0.65Q577.83 0.65 576.56-0.38 575.28-1.4 574.88-3.1L574.88-3.1Q573.38-1.5 571.81-0.38 570.23 0.75 567.73 0.75ZM570.78-2.3L570.78-2.3Q571.78-2.3 572.66-2.78 573.53-3.25 574.73-4.25L574.73-4.25 574.73-12.65Q574.23-12.55 573.73-12.45 573.23-12.35 572.58-12.25L572.58-12.25Q570.28-11.65 568.91-10.23 567.53-8.8 567.53-6.4L567.53-6.4Q567.53-4.35 568.48-3.33 569.43-2.3 570.78-2.3ZM595.83 0.75L595.83 0.75Q592.63 0.75 590.86-0.85 589.08-2.45 589.08-5.95L589.08-5.95 589.08-23.05 585.63-23.05 585.63-23.55 586.83-23.75Q588.38-24.1 589.51-24.75 590.63-25.4 591.73-26.5L591.73-26.5 595.83-31.05 596.33-31.05 596.18-24.05 601.78-24.05 601.78-23.05 596.13-23.05 596.13-5.05Q596.13-3.3 596.91-2.4 597.68-1.5 598.88-1.5L598.88-1.5Q599.93-1.5 600.73-2.02 601.53-2.55 602.33-3.45L602.33-3.45 602.83-2.95Q601.83-1.25 600.08-0.25 598.33 0.75 595.83 0.75ZM610.38-27.4L610.38-27.4Q608.68-27.4 607.5-28.48 606.33-29.55 606.33-31.2L606.33-31.2Q606.33-32.9 607.5-33.95 608.68-35 610.38-35L610.38-35Q612.08-35 613.23-33.95 614.38-32.9 614.38-31.2L614.38-31.2Q614.38-29.55 613.23-28.48 612.08-27.4 610.38-27.4ZM616.18 0L604.48 0 604.48-0.5 605.18-0.7Q606.18-1 606.55-1.6 606.93-2.2 606.93-3.2L606.93-3.2 606.93-18.85Q606.93-19.9 606.55-20.43 606.18-20.95 605.18-21.15L605.18-21.15 604.48-21.3 604.48-21.8 613.63-24.75 614.13-24.25 613.98-17.15 613.98-3.15Q613.98-2.15 614.35-1.55 614.73-0.95 615.68-0.65L615.68-0.65 616.18-0.5 616.18 0ZM631.03 0.75L631.03 0.75Q627.23 0.75 624.43-0.83 621.63-2.4 620.1-5.3 618.58-8.2 618.58-12.1L618.58-12.1Q618.58-16 620.2-18.85 621.83-21.7 624.65-23.25 627.48-24.8 631.03-24.8L631.03-24.8Q634.58-24.8 637.38-23.28 640.18-21.75 641.8-18.9 643.43-16.05 643.43-12.1L643.43-12.1Q643.43-8.15 641.9-5.28 640.38-2.4 637.6-0.83 634.83 0.75 631.03 0.75ZM631.03-0.25L631.03-0.25Q632.78-0.25 633.83-1.25 634.88-2.25 635.35-4.8 635.83-7.35 635.83-12L635.83-12Q635.83-16.7 635.35-19.25 634.88-21.8 633.83-22.8 632.78-23.8 631.03-23.8L631.03-23.8Q629.28-23.8 628.2-22.8 627.13-21.8 626.65-19.25 626.18-16.7 626.18-12L626.18-12Q626.18-7.35 626.65-4.8 627.13-2.25 628.2-1.25 629.28-0.25 631.03-0.25ZM657.37 0L645.62 0 645.62-0.5 646.32-0.7Q648.07-1.2 648.07-3.15L648.07-3.15 648.07-18.8Q648.07-19.9 647.72-20.43 647.37-20.95 646.37-21.15L646.37-21.15 645.62-21.35 645.62-21.85 654.17-24.75 654.67-24.25 655.07-21.25Q656.82-22.8 659.02-23.8 661.22-24.8 663.37-24.8L663.37-24.8Q666.67-24.8 668.45-23 670.22-21.2 670.22-17.5L670.22-17.5 670.22-3.1Q670.22-1.15 672.12-0.65L672.12-0.65 672.57-0.5 672.57 0 660.77 0 660.77-0.5 661.42-0.7Q663.17-1.25 663.17-3.15L663.17-3.15 663.17-19.1Q663.17-22.3 659.97-22.3L659.97-22.3Q657.77-22.3 655.17-20.1L655.17-20.1 655.17-3.1Q655.17-1.15 656.92-0.65L656.92-0.65 657.37-0.5 657.37 0ZM683.17 0.75L683.17 0.75Q680.72 0.75 678.77 0.18 676.82-0.4 675.17-1.25L675.17-1.25 675.22-7.2 675.72-7.2 677.42-4.2Q678.52-2.2 679.85-1.23 681.17-0.25 683.22-0.25L683.22-0.25Q685.62-0.25 687.1-1.33 688.57-2.4 688.57-4.2L688.57-4.2Q688.57-5.85 687.52-6.9 686.47-7.95 683.62-8.8L683.62-8.8 681.52-9.45Q678.47-10.35 676.72-12.25 674.97-14.15 674.97-16.9L674.97-16.9Q674.97-20.2 677.57-22.5 680.17-24.8 685.02-24.8L685.02-24.8Q686.97-24.8 688.7-24.38 690.42-23.95 692.02-23.1L692.02-23.1 691.72-17.7 691.22-17.7 689.47-20.8Q688.52-22.45 687.6-23.13 686.67-23.8 684.82-23.8L684.82-23.8Q683.12-23.8 681.62-22.85 680.12-21.9 680.12-20.15L680.12-20.15Q680.12-18.45 681.4-17.45 682.67-16.45 685.17-15.6L685.17-15.6 687.42-14.95Q691.02-13.85 692.57-11.93 694.12-10 694.12-7.3L694.12-7.3Q694.12-3.65 691.25-1.45 688.37 0.75 683.17 0.75Z" opacity="1" transform="matrix(1,0,0,1,0,0)" fill="#ffffff" class="slogan-text-1" data-fill-palette-color="secondary" id="text-1"></path></svg></g></svg></g></svg></g></svg></g></svg></g><defs></defs></svg><rect width="210.5995100902872" height="247.2" fill="none" stroke="none" visibility="hidden"></rect></g></svg></g></svg>