<svg xmlns="http://www.w3.org/2000/svg" version="1.1" xmlns:xlink="http://www.w3.org/1999/xlink" xmlns:svgjs="http://svgjs.dev/svgjs" width="2000" height="606" viewBox="0 0 2000 606"><g transform="matrix(1,0,0,1,0.3398876404492057,-0.5134166666666715)"><svg viewBox="0 0 356 108" data-background-color="#ffffff" preserveAspectRatio="xMidYMid meet" height="606" width="2000" xmlns="http://www.w3.org/2000/svg" xmlns:xlink="http://www.w3.org/1999/xlink"><g id="tight-bounds" transform="matrix(1,0,0,1,-0.06049999999996203,0.09149999999999636)"><svg viewBox="0 0 356.12052 107.81673244581008" height="107.81673244581008" width="356.12052"><g><svg viewBox="0 0 356.12052 107.81673244581008" height="107.81673244581008" width="356.12052"><g><svg viewBox="0 0 356.12052 107.81673244581008" height="107.81673244581008" width="356.12052"><g><path d="M0 107.817v-107.817h356.121v107.817z" fill="#000000" stroke="transparent" stroke-width="0" rx="0%" data-fill-palette-color="tertiary"></path><path d="M3.283 104.533v-101.25h349.554v101.25z" fill="#ffffff" stroke="transparent" stroke-width="0" rx="0%" data-fill-palette-color="quaternary"></path><path d="M9.85 97.967v-88.117h336.421v88.117z" fill="#000000" stroke="transparent" stroke-width="0" data-fill-palette-color="tertiary"></path></g><g transform="matrix(1,0,0,1,19.69974,19.69974)" id="textblocktransform"><svg viewBox="0 0 316.72104 68.41725244581008" height="68.41725244581008" width="316.72104" id="textblock"><g><svg viewBox="0 0 316.72104 43.21306220855994" height="43.21306220855994" width="316.72104"><g transform="matrix(1,0,0,1,0,0)"><svg width="316.72104" viewBox="4 -28.8 211.44 28.85" height="43.21306220855994" data-palette-color="#ffffff"><path d="M33.8-28.8L33.8 0 20.2 0 20.2-5.25 27.5-5.25 27.5-17.25 20-17.25 20-21.9 27.5-21.9 27.5-28.8 33.8-28.8ZM4-3.45L4-18.45 9.7-21.9 17.8-21.9 17.8-17.25 10.1-17.25 10.1-5.25 17.6-5.25 17.6 0 9.7 0 4-3.45ZM73-18.55L73-12.85 67.1-9.4 59.1-9.4 59.1-13.25 66.65-13.25 66.65-17.35 59.1-17.35 59.1-22.05 67.1-22.05 73-18.55ZM66.45-6.95L73-6.95 73-3.45 67.1 0 59.1 0 59.1-5.3 66.45-5.3 66.45-6.95ZM42.8-18.55L42.8-3.45 48.7 0 56.65 0 56.65-5.3 49.1-5.3 49.1-9.4 56.65-9.4 56.65-13.25 49.1-13.25 49.1-17.35 56.65-17.35 56.65-22.05 48.7-22.05 42.8-18.55ZM82 0L82-21.85 88.25-21.85 88.25-19.7 95.75-21.85 95.75-17.2 88.25-17.2 88.25 0 82 0ZM104.5-15.05L104.5-19.1 98-21.85 98-15.05 104.5-15.05ZM109.39 0L109.39-21.85 115.64-21.85 115.64-19.7 123.14-21.85 123.14-17.2 115.64-17.2 115.64 0 109.39 0ZM131.89-15.05L131.89-19.1 125.39-21.85 125.39-15.05 131.89-15.05ZM136.39-22L142.69-22 142.69 0.05 136.39 0.05 136.39-22ZM142.59-28.7L142.59-24.05 136.39-24.05 136.39-28.7 142.59-28.7ZM150.69-3.45L150.69-18.6 156.39-22.05 164.59-22.05 164.59-17.35 157.04-17.35 157.04-5.3 164.39-5.3 164.39 0 156.39 0 150.69-3.45ZM174.39-15.1L180.69-15.1 180.69-18.6 174.99-22.05 166.84-22.05 166.84-17.35 174.39-17.35 174.39-15.1ZM174.39-6.95L180.69-6.95 180.69-3.45 174.99 0 166.84 0 166.84-5.3 174.39-5.3 174.39-6.95ZM185.59 0.05L185.59-28.75 191.89-28.75 191.89-13.1 194.69-13.1 194.69-9.45 191.89-9.45 191.89 0.05 185.59 0.05ZM215.44-3.4L202.89-11.5 214.34-19.05 210.19-22 197.19-13.1 197.19-9.45 209.79 0.05 215.44-3.4Z" opacity="1" transform="matrix(1,0,0,1,0,0)" fill="#ffffff" class="wordmark-text-0" data-fill-palette-color="quaternary" id="text-0"></path></svg></g></svg></g><g transform="matrix(1,0,0,1,0,49.77964220855994)"><svg viewBox="0 0 316.72104 18.63761023725014" height="18.63761023725014" width="316.72104"><g transform="matrix(1,0,0,1,0,0)"><svg width="316.72104" viewBox="5.4 -36.5 802.87 47.25" height="18.63761023725014" data-palette-color="#ffffff"><path d="M17.1 0L5.4 0 5.4-33 17.15-33Q23-33 25.7-30.55 28.4-28.1 28.4-23.9L28.4-23.9Q28.4-21.4 26.95-19.38 25.5-17.35 22.85-16.8L22.85-16.8 22.85-16.75Q25.8-16.2 27.53-14.08 29.25-11.95 29.25-9.25L29.25-9.25Q29.25-5.05 26.1-2.53 22.95 0 17.1 0L17.1 0ZM9.4-14.75L9.4-3.75 18.05-3.75Q21.6-3.75 23.33-5.2 25.05-6.65 25.05-9.25L25.05-9.25Q25.05-11.9 23.33-13.33 21.6-14.75 18.05-14.75L18.05-14.75 9.4-14.75ZM9.4-29.25L9.4-18.5 17.2-18.5Q24.2-18.5 24.2-23.9L24.2-23.9Q24.2-29.25 17.2-29.25L17.2-29.25 9.4-29.25ZM46.35 0.5L46.35 0.5Q43.95 0.5 41.82-0.4 39.7-1.3 38.37-3.33 37.05-5.35 37.05-8.6L37.05-8.6 37.05-25 41.05-25 41.05-9.65Q41.05-5.85 42.7-4.42 44.35-3 47.35-3L47.35-3Q48.75-3 50.1-3.48 51.45-3.95 52.52-4.98 53.6-6 54.22-7.6 54.85-9.2 54.85-11.4L54.85-11.4 54.85-25 58.85-25 58.85 0 55.35 0 55.1-3.8Q53.8-1.55 51.57-0.53 49.35 0.5 46.35 0.5ZM70.15-29.8L70.15-29.8Q68.8-29.8 67.97-30.63 67.15-31.45 67.15-32.8L67.15-32.8Q67.15-34.15 67.97-34.98 68.8-35.8 70.15-35.8L70.15-35.8Q71.5-35.8 72.32-34.98 73.15-34.15 73.15-32.8L73.15-32.8Q73.15-31.45 72.32-30.63 71.5-29.8 70.15-29.8ZM68.15-25L72.15-25 72.15 0 68.15 0 68.15-25ZM81.24-36.5L85.24-36.5 85.24-6.35Q85.24-4.45 85.94-3.73 86.64-3 88.19-3L88.19-3Q89.19-3 89.84-3.15 90.49-3.3 91.59-3.7L91.59-3.7 90.94-0.2Q90.14 0.15 89.19 0.33 88.24 0.5 87.24 0.5L87.24 0.5Q84.19 0.5 82.72-1.15 81.24-2.8 81.24-6.2L81.24-6.2 81.24-36.5ZM106.49 0.5L106.49 0.5Q103.39 0.5 100.79-1.05 98.19-2.6 96.64-5.53 95.09-8.45 95.09-12.5L95.09-12.5Q95.09-16.65 96.74-19.55 98.39-22.45 101.09-23.98 103.79-25.5 106.89-25.5L106.89-25.5Q109.99-25.5 112.27-23.9 114.54-22.3 115.29-19.65L115.29-19.65 114.79-19.3 114.79-36.5 118.79-36.5 118.79 0 115.29 0 114.94-6.05 115.49-6.35Q115.14-4.15 113.81-2.63 112.49-1.1 110.56-0.3 108.64 0.5 106.49 0.5ZM106.89-3L106.89-3Q109.29-3 111.06-4.2 112.84-5.4 113.81-7.63 114.79-9.85 114.79-12.85L114.79-12.85Q114.79-15.7 113.81-17.75 112.84-19.8 111.12-20.9 109.39-22 107.09-22L107.09-22Q103.29-22 101.19-19.4 99.09-16.8 99.09-12.5L99.09-12.5Q99.09-8.2 101.14-5.6 103.19-3 106.89-3ZM130.09-29.8L130.09-29.8Q128.74-29.8 127.91-30.63 127.09-31.45 127.09-32.8L127.09-32.8Q127.09-34.15 127.91-34.98 128.74-35.8 130.09-35.8L130.09-35.8Q131.44-35.8 132.26-34.98 133.09-34.15 133.09-32.8L133.09-32.8Q133.09-31.45 132.26-30.63 131.44-29.8 130.09-29.8ZM128.09-25L132.09-25 132.09 0 128.09 0 128.09-25ZM145.39 0L141.39 0 141.39-25 144.89-25 145.24-19.4 144.59-19.95Q145.39-21.95 146.74-23.18 148.09-24.4 149.86-24.95 151.64-25.5 153.54-25.5L153.54-25.5Q156.24-25.5 158.44-24.48 160.64-23.45 161.96-21.35 163.29-19.25 163.29-16L163.29-16 163.29 0 159.29 0 159.29-14.6Q159.29-18.75 157.51-20.38 155.74-22 153.14-22L153.14-22Q151.34-22 149.54-21.15 147.74-20.3 146.56-18.4 145.39-16.5 145.39-13.3L145.39-13.3 145.39 0ZM193.38-29.6L193.38-29.6 194.28-26.05Q194.23-26.05 194.13-26.05 194.03-26.05 193.93-26.05L193.93-26.05Q191.48-26.05 190.16-25.08 188.83-24.1 188.83-21.95L188.83-21.95 186.38-23.2Q186.38-25.15 187.28-26.6 188.18-28.05 189.73-28.83 191.28-29.6 193.13-29.6L193.13-29.6Q193.18-29.6 193.26-29.6 193.33-29.6 193.38-29.6ZM178.48-3.2L185.78-3.2Q189.33-3.2 191.33-1.58 193.33 0.05 193.33 2.75L193.33 2.75Q193.33 5.2 191.71 7 190.08 8.8 187.36 9.78 184.63 10.75 181.23 10.75L181.23 10.75Q175.33 10.75 172.41 8.75 169.48 6.75 169.48 3.95L169.48 3.95Q169.48 1.95 170.81 0.38 172.13-1.2 175.28-1.4L175.28-1.4 174.93-0.65Q173.23-1.1 172.06-2.18 170.88-3.25 170.88-5.3L170.88-5.3Q170.88-7.35 172.41-8.83 173.93-10.3 176.93-10.65L176.93-10.65 179.58-9.3 179.08-9.3Q176.63-9.05 175.61-8.08 174.58-7.1 174.58-5.95L174.58-5.95Q174.58-4.55 175.61-3.88 176.63-3.2 178.48-3.2L178.48-3.2ZM181.18 7.4L181.18 7.4Q184.08 7.4 185.96 6.8 187.83 6.2 188.73 5.25 189.63 4.3 189.63 3.2L189.63 3.2Q189.63 1.85 188.56 1.05 187.48 0.25 184.68 0.25L184.68 0.25 176.98 0.25Q175.38 0.25 174.28 1.07 173.18 1.9 173.18 3.35L173.18 3.35Q173.18 5.2 175.31 6.3 177.43 7.4 181.18 7.4ZM180.83-25.5L180.83-25.5Q183.83-25.5 186.16-24.43 188.48-23.35 189.78-21.45 191.08-19.55 191.08-17.05L191.08-17.05Q191.08-14.6 189.78-12.68 188.48-10.75 186.16-9.68 183.83-8.6 180.83-8.6L180.83-8.6Q175.88-8.6 173.23-10.98 170.58-13.35 170.58-17.05L170.58-17.05Q170.58-19.55 171.91-21.45 173.23-23.35 175.53-24.43 177.83-25.5 180.83-25.5ZM180.83-22.25L180.83-22.25Q178.23-22.25 176.48-20.83 174.73-19.4 174.73-17.05L174.73-17.05Q174.73-14.75 176.48-13.3 178.23-11.85 180.83-11.85L180.83-11.85Q183.43-11.85 185.18-13.3 186.93-14.75 186.93-17.05L186.93-17.05Q186.93-19.4 185.18-20.83 183.43-22.25 180.83-22.25ZM225.73 0.5L225.73 0.5Q222.63 0.5 220.03-1.05 217.43-2.6 215.88-5.53 214.33-8.45 214.33-12.5L214.33-12.5Q214.33-16.65 215.98-19.55 217.63-22.45 220.33-23.98 223.03-25.5 226.13-25.5L226.13-25.5Q229.23-25.5 231.5-23.9 233.78-22.3 234.53-19.65L234.53-19.65 234.03-19.3 234.03-36.5 238.03-36.5 238.03 0 234.53 0 234.18-6.05 234.73-6.35Q234.38-4.15 233.05-2.63 231.73-1.1 229.8-0.3 227.88 0.5 225.73 0.5ZM226.13-3L226.13-3Q228.53-3 230.3-4.2 232.08-5.4 233.05-7.63 234.03-9.85 234.03-12.85L234.03-12.85Q234.03-15.7 233.05-17.75 232.08-19.8 230.35-20.9 228.63-22 226.33-22L226.33-22Q222.53-22 220.43-19.4 218.33-16.8 218.33-12.5L218.33-12.5Q218.33-8.2 220.38-5.6 222.43-3 226.13-3ZM261.93-9.25L261.93-16.15Q261.93-18.95 260.43-20.48 258.93-22 256.18-22L256.18-22Q253.58-22 251.78-20.88 249.98-19.75 249.13-17.25L249.13-17.25 245.88-19.25Q246.88-22.05 249.58-23.78 252.28-25.5 256.28-25.5L256.28-25.5Q258.98-25.5 261.18-24.58 263.38-23.65 264.65-21.78 265.93-19.9 265.93-16.95L265.93-16.95 265.93-4.85Q265.93-3.05 267.82-3.05L267.82-3.05Q268.78-3.05 269.68-3.3L269.68-3.3 269.48-0.15Q268.48 0.35 266.88 0.35L266.88 0.35Q265.43 0.35 264.28-0.2 263.13-0.75 262.48-1.88 261.82-3 261.82-4.7L261.82-4.7 261.82-5.2 262.82-5.05Q262.23-3.1 260.78-1.88 259.32-0.65 257.53-0.08 255.73 0.5 253.98 0.5L253.98 0.5Q251.78 0.5 249.88-0.25 247.98-1 246.85-2.53 245.73-4.05 245.73-6.3L245.73-6.3Q245.73-9.1 247.6-10.93 249.48-12.75 252.83-13.4L252.83-13.4 262.73-15.35 262.73-12.05 254.68-10.4Q252.23-9.9 251.03-9 249.83-8.1 249.83-6.5L249.83-6.5Q249.83-4.95 251.05-3.98 252.28-3 254.53-3L254.53-3Q255.98-3 257.3-3.38 258.63-3.75 259.68-4.53 260.73-5.3 261.32-6.48 261.93-7.65 261.93-9.25L261.93-9.25ZM277.52-31L281.52-32.1 281.52-6.9Q281.52-5.05 282.57-4.15 283.62-3.25 285.27-3.25L285.27-3.25Q286.72-3.25 287.77-3.75 288.82-4.25 289.67-5.1L289.67-5.1 291.07-1.75Q289.92-0.7 288.35-0.1 286.77 0.5 284.72 0.5L284.72 0.5Q282.82 0.5 281.17-0.18 279.52-0.85 278.55-2.33 277.57-3.8 277.52-6.2L277.52-6.2 277.52-31ZM272.52-25L290.62-25 290.62-21.55 272.52-21.55 272.52-25ZM311.17-9.25L311.17-16.15Q311.17-18.95 309.67-20.48 308.17-22 305.42-22L305.42-22Q302.82-22 301.02-20.88 299.22-19.75 298.37-17.25L298.37-17.25 295.12-19.25Q296.12-22.05 298.82-23.78 301.52-25.5 305.52-25.5L305.52-25.5Q308.22-25.5 310.42-24.58 312.62-23.65 313.9-21.78 315.17-19.9 315.17-16.95L315.17-16.95 315.17-4.85Q315.17-3.05 317.07-3.05L317.07-3.05Q318.02-3.05 318.92-3.3L318.92-3.3 318.72-0.15Q317.72 0.35 316.12 0.35L316.12 0.35Q314.67 0.35 313.52-0.2 312.37-0.75 311.72-1.88 311.07-3 311.07-4.7L311.07-4.7 311.07-5.2 312.07-5.05Q311.47-3.1 310.02-1.88 308.57-0.65 306.77-0.08 304.97 0.5 303.22 0.5L303.22 0.5Q301.02 0.5 299.12-0.25 297.22-1 296.1-2.53 294.97-4.05 294.97-6.3L294.97-6.3Q294.97-9.1 296.85-10.93 298.72-12.75 302.07-13.4L302.07-13.4 311.97-15.35 311.97-12.05 303.92-10.4Q301.47-9.9 300.27-9 299.07-8.1 299.07-6.5L299.07-6.5Q299.07-4.95 300.3-3.98 301.52-3 303.77-3L303.77-3Q305.22-3 306.55-3.38 307.87-3.75 308.92-4.53 309.97-5.3 310.57-6.48 311.17-7.65 311.17-9.25L311.17-9.25ZM324.72-15.15L341.22-15.15 341.22-11 324.72-11 324.72-15.15ZM360.12 0.5L360.12 0.5Q357.02 0.5 354.42-1.05 351.82-2.6 350.27-5.53 348.72-8.45 348.72-12.5L348.72-12.5Q348.72-16.65 350.37-19.55 352.02-22.45 354.72-23.98 357.42-25.5 360.52-25.5L360.52-25.5Q363.62-25.5 365.89-23.9 368.17-22.3 368.92-19.65L368.92-19.65 368.42-19.3 368.42-36.5 372.42-36.5 372.42 0 368.92 0 368.57-6.05 369.12-6.35Q368.77-4.15 367.44-2.63 366.12-1.1 364.19-0.3 362.27 0.5 360.12 0.5ZM360.52-3L360.52-3Q362.92-3 364.69-4.2 366.47-5.4 367.44-7.63 368.42-9.85 368.42-12.85L368.42-12.85Q368.42-15.7 367.44-17.75 366.47-19.8 364.74-20.9 363.02-22 360.72-22L360.72-22Q356.92-22 354.82-19.4 352.72-16.8 352.72-12.5L352.72-12.5Q352.72-8.2 354.77-5.6 356.82-3 360.52-3ZM385.71 0L381.71 0 381.71-25 384.96-25 385.51-20.9Q386.56-23.2 388.59-24.35 390.61-25.5 393.51-25.5L393.51-25.5Q394.16-25.5 394.94-25.4 395.71-25.3 396.26-25L396.26-25 395.56-21.35Q395.01-21.55 394.36-21.65 393.71-21.75 392.51-21.75L392.51-21.75Q390.96-21.75 389.39-20.85 387.81-19.95 386.76-18.13 385.71-16.3 385.71-13.5L385.71-13.5 385.71 0ZM404.11-29.8L404.11-29.8Q402.76-29.8 401.94-30.63 401.11-31.45 401.11-32.8L401.11-32.8Q401.11-34.15 401.94-34.98 402.76-35.8 404.11-35.8L404.11-35.8Q405.46-35.8 406.29-34.98 407.11-34.15 407.11-32.8L407.11-32.8Q407.11-31.45 406.29-30.63 405.46-29.8 404.11-29.8ZM402.11-25L406.11-25 406.11 0 402.11 0 402.11-25ZM423.81-4.05L431.96-25 436.16-25 425.76 0 421.76 0 411.36-25 415.91-25 423.81-4.05ZM451.86 0.5L451.86 0.5Q448.31 0.5 445.53-1.05 442.76-2.6 441.21-5.53 439.66-8.45 439.66-12.5L439.66-12.5Q439.66-16.55 441.21-19.48 442.76-22.4 445.46-23.95 448.16-25.5 451.61-25.5L451.61-25.5Q455.11-25.5 457.58-24 460.06-22.5 461.36-19.93 462.66-17.35 462.66-14.15L462.66-14.15Q462.66-13.3 462.61-12.6 462.56-11.9 462.46-11.35L462.46-11.35 442.26-11.35 442.26-14.9 460.71-14.9 458.66-14.5Q458.66-18.1 456.68-20.05 454.71-22 451.51-22L451.51-22Q449.06-22 447.28-20.88 445.51-19.75 444.53-17.63 443.56-15.5 443.56-12.5L443.56-12.5Q443.56-9.55 444.56-7.4 445.56-5.25 447.38-4.13 449.21-3 451.76-3L451.76-3Q454.51-3 456.23-4.05 457.96-5.1 459.01-6.9L459.01-6.9 462.16-5.05Q461.21-3.35 459.73-2.1 458.26-0.85 456.28-0.18 454.31 0.5 451.86 0.5ZM474.25 0L470.25 0 470.25-25 473.75-25 474.1-19.4 473.45-19.95Q474.25-21.95 475.6-23.18 476.95-24.4 478.73-24.95 480.5-25.5 482.4-25.5L482.4-25.5Q485.1-25.5 487.3-24.48 489.5-23.45 490.83-21.35 492.15-19.25 492.15-16L492.15-16 492.15 0 488.15 0 488.15-14.6Q488.15-18.75 486.38-20.38 484.6-22 482-22L482-22Q480.2-22 478.4-21.15 476.6-20.3 475.43-18.4 474.25-16.5 474.25-13.3L474.25-13.3 474.25 0ZM532.85-9.25L532.85-16.15Q532.85-18.95 531.35-20.48 529.85-22 527.1-22L527.1-22Q524.5-22 522.7-20.88 520.9-19.75 520.05-17.25L520.05-17.25 516.8-19.25Q517.8-22.05 520.5-23.78 523.2-25.5 527.2-25.5L527.2-25.5Q529.9-25.5 532.1-24.58 534.3-23.65 535.57-21.78 536.85-19.9 536.85-16.95L536.85-16.95 536.85-4.85Q536.85-3.05 538.75-3.05L538.75-3.05Q539.7-3.05 540.6-3.3L540.6-3.3 540.4-0.15Q539.4 0.35 537.8 0.35L537.8 0.35Q536.35 0.35 535.2-0.2 534.05-0.75 533.4-1.88 532.75-3 532.75-4.7L532.75-4.7 532.75-5.2 533.75-5.05Q533.15-3.1 531.7-1.88 530.25-0.65 528.45-0.08 526.65 0.5 524.9 0.5L524.9 0.5Q522.7 0.5 520.8-0.25 518.9-1 517.77-2.53 516.65-4.05 516.65-6.3L516.65-6.3Q516.65-9.1 518.52-10.93 520.4-12.75 523.75-13.4L523.75-13.4 533.65-15.35 533.65-12.05 525.6-10.4Q523.15-9.9 521.95-9 520.75-8.1 520.75-6.5L520.75-6.5Q520.75-4.95 521.97-3.98 523.2-3 525.45-3L525.45-3Q526.9-3 528.22-3.38 529.55-3.75 530.6-4.53 531.65-5.3 532.25-6.48 532.85-7.65 532.85-9.25L532.85-9.25ZM550.54 10.5L546.54 10.5 546.54-25 550.04-25 550.39-18.9 549.84-19.6Q550.49-21.35 551.79-22.68 553.09-24 554.94-24.75 556.79-25.5 558.94-25.5L558.94-25.5Q561.99-25.5 564.57-23.95 567.14-22.4 568.69-19.5 570.24-16.6 570.24-12.5L570.24-12.5Q570.24-8.45 568.67-5.53 567.09-2.6 564.49-1.05 561.89 0.5 558.79 0.5L558.79 0.5Q555.69 0.5 553.37-1.03 551.04-2.55 550.04-4.9L550.04-4.9 550.54-5.65 550.54 10.5ZM558.39-3L558.39-3Q562.09-3 564.17-5.6 566.24-8.2 566.24-12.5L566.24-12.5Q566.24-16.8 564.22-19.4 562.19-22 558.54-22L558.54-22Q556.14-22 554.34-20.83 552.54-19.65 551.54-17.53 550.54-15.4 550.54-12.5L550.54-12.5Q550.54-9.65 551.52-7.5 552.49-5.35 554.27-4.17 556.04-3 558.39-3ZM581.89 10.5L577.89 10.5 577.89-25 581.39-25 581.74-18.9 581.19-19.6Q581.84-21.35 583.14-22.68 584.44-24 586.29-24.75 588.14-25.5 590.29-25.5L590.29-25.5Q593.34-25.5 595.92-23.95 598.49-22.4 600.04-19.5 601.59-16.6 601.59-12.5L601.59-12.5Q601.59-8.45 600.02-5.53 598.44-2.6 595.84-1.05 593.24 0.5 590.14 0.5L590.14 0.5Q587.04 0.5 584.72-1.03 582.39-2.55 581.39-4.9L581.39-4.9 581.89-5.65 581.89 10.5ZM589.74-3L589.74-3Q593.44-3 595.52-5.6 597.59-8.2 597.59-12.5L597.59-12.5Q597.59-16.8 595.57-19.4 593.54-22 589.89-22L589.89-22Q587.49-22 585.69-20.83 583.89-19.65 582.89-17.53 581.89-15.4 581.89-12.5L581.89-12.5Q581.89-9.65 582.87-7.5 583.84-5.35 585.62-4.17 587.39-3 589.74-3ZM609.04-36.5L613.04-36.5 613.04-6.35Q613.04-4.45 613.74-3.73 614.44-3 615.99-3L615.99-3Q616.99-3 617.64-3.15 618.29-3.3 619.39-3.7L619.39-3.7 618.74-0.2Q617.94 0.15 616.99 0.33 616.04 0.5 615.04 0.5L615.04 0.5Q611.99 0.5 610.51-1.15 609.04-2.8 609.04-6.2L609.04-6.2 609.04-36.5ZM626.54-29.8L626.54-29.8Q625.19-29.8 624.36-30.63 623.54-31.45 623.54-32.8L623.54-32.8Q623.54-34.15 624.36-34.98 625.19-35.8 626.54-35.8L626.54-35.8Q627.89-35.8 628.71-34.98 629.54-34.15 629.54-32.8L629.54-32.8Q629.54-31.45 628.71-30.63 627.89-29.8 626.54-29.8ZM624.54-25L628.54-25 628.54 0 624.54 0 624.54-25ZM648.18-25.5L648.18-25.5Q650.78-25.5 652.76-24.7 654.73-23.9 656.18-22.4 657.63-20.9 658.53-18.85L658.53-18.85 654.73-17.05Q653.93-19.45 652.31-20.73 650.68-22 648.08-22L648.08-22Q645.58-22 643.78-20.88 641.98-19.75 641.03-17.63 640.08-15.5 640.08-12.5L640.08-12.5Q640.08-9.55 641.03-7.4 641.98-5.25 643.78-4.13 645.58-3 648.08-3L648.08-3Q650.03-3 651.46-3.6 652.88-4.2 653.81-5.35 654.73-6.5 655.08-8.15L655.08-8.15 658.78-6.85Q657.93-4.55 656.46-2.9 654.98-1.25 652.91-0.38 650.83 0.5 648.18 0.5L648.18 0.5Q644.68 0.5 641.93-1.05 639.18-2.6 637.63-5.53 636.08-8.45 636.08-12.5L636.08-12.5Q636.08-16.55 637.63-19.48 639.18-22.4 641.93-23.95 644.68-25.5 648.18-25.5ZM680.43-9.25L680.43-16.15Q680.43-18.95 678.93-20.48 677.43-22 674.68-22L674.68-22Q672.08-22 670.28-20.88 668.48-19.75 667.63-17.25L667.63-17.25 664.38-19.25Q665.38-22.05 668.08-23.78 670.78-25.5 674.78-25.5L674.78-25.5Q677.48-25.5 679.68-24.58 681.88-23.65 683.16-21.78 684.43-19.9 684.43-16.95L684.43-16.95 684.43-4.85Q684.43-3.05 686.33-3.05L686.33-3.05Q687.28-3.05 688.18-3.3L688.18-3.3 687.98-0.15Q686.98 0.35 685.38 0.35L685.38 0.35Q683.93 0.35 682.78-0.2 681.63-0.75 680.98-1.88 680.33-3 680.33-4.7L680.33-4.7 680.33-5.2 681.33-5.05Q680.73-3.1 679.28-1.88 677.83-0.65 676.03-0.08 674.23 0.5 672.48 0.5L672.48 0.5Q670.28 0.5 668.38-0.25 666.48-1 665.36-2.53 664.23-4.05 664.23-6.3L664.23-6.3Q664.23-9.1 666.11-10.93 667.98-12.75 671.33-13.4L671.33-13.4 681.23-15.35 681.23-12.05 673.18-10.4Q670.73-9.9 669.53-9 668.33-8.1 668.33-6.5L668.33-6.5Q668.33-4.95 669.56-3.98 670.78-3 673.03-3L673.03-3Q674.48-3 675.81-3.38 677.13-3.75 678.18-4.53 679.23-5.3 679.83-6.48 680.43-7.65 680.43-9.25L680.43-9.25ZM696.03-31L700.03-32.1 700.03-6.9Q700.03-5.05 701.08-4.15 702.13-3.25 703.78-3.25L703.78-3.25Q705.23-3.25 706.28-3.75 707.33-4.25 708.18-5.1L708.18-5.1 709.58-1.75Q708.43-0.7 706.85-0.1 705.28 0.5 703.23 0.5L703.23 0.5Q701.33 0.5 699.68-0.18 698.03-0.85 697.05-2.33 696.08-3.8 696.03-6.2L696.03-6.2 696.03-31ZM691.03-25L709.13-25 709.13-21.55 691.03-21.55 691.03-25ZM717.08-29.8L717.08-29.8Q715.73-29.8 714.9-30.63 714.08-31.45 714.08-32.8L714.08-32.8Q714.08-34.15 714.9-34.98 715.73-35.8 717.08-35.8L717.08-35.8Q718.43-35.8 719.25-34.98 720.08-34.15 720.08-32.8L720.08-32.8Q720.08-31.45 719.25-30.63 718.43-29.8 717.08-29.8ZM715.08-25L719.08-25 719.08 0 715.08 0 715.08-25ZM738.72-25.5L738.72-25.5Q742.27-25.5 745-23.95 747.72-22.4 749.27-19.48 750.82-16.55 750.82-12.5L750.82-12.5Q750.82-8.45 749.27-5.53 747.72-2.6 745-1.05 742.27 0.5 738.72 0.5L738.72 0.5Q735.22 0.5 732.47-1.05 729.72-2.6 728.17-5.53 726.62-8.45 726.62-12.5L726.62-12.5Q726.62-16.55 728.17-19.48 729.72-22.4 732.47-23.95 735.22-25.5 738.72-25.5ZM738.72-22.05L738.72-22.05Q736.17-22.05 734.37-20.9 732.57-19.75 731.6-17.63 730.62-15.5 730.62-12.5L730.62-12.5Q730.62-9.55 731.6-7.4 732.57-5.25 734.37-4.1 736.17-2.95 738.72-2.95L738.72-2.95Q741.27-2.95 743.07-4.1 744.87-5.25 745.85-7.4 746.82-9.55 746.82-12.5L746.82-12.5Q746.82-15.5 745.85-17.63 744.87-19.75 743.07-20.9 741.27-22.05 738.72-22.05ZM762.37 0L758.37 0 758.37-25 761.87-25 762.22-19.4 761.57-19.95Q762.37-21.95 763.72-23.18 765.07-24.4 766.85-24.95 768.62-25.5 770.52-25.5L770.52-25.5Q773.22-25.5 775.42-24.48 777.62-23.45 778.95-21.35 780.27-19.25 780.27-16L780.27-16 780.27 0 776.27 0 776.27-14.6Q776.27-18.75 774.5-20.38 772.72-22 770.12-22L770.12-22Q768.32-22 766.52-21.15 764.72-20.3 763.55-18.4 762.37-16.5 762.37-13.3L762.37-13.3 762.37 0ZM798.32 0.5L798.32 0.5Q794.67 0.5 791.59-1.05 788.52-2.6 786.87-5.45L786.87-5.45 790.27-7.9Q791.37-5.6 793.49-4.3 795.62-3 798.62-3L798.62-3Q801.27-3 802.77-4.03 804.27-5.05 804.27-6.7L804.27-6.7Q804.27-7.75 803.59-8.63 802.92-9.5 801.02-9.9L801.02-9.9 795.02-11.15Q791.37-11.9 789.79-13.65 788.22-15.4 788.22-18L788.22-18Q788.22-20.05 789.39-21.75 790.57-23.45 792.74-24.48 794.92-25.5 797.87-25.5L797.87-25.5Q801.57-25.5 804.12-24.05 806.67-22.6 807.92-19.95L807.92-19.95 804.57-17.75Q803.72-19.95 801.82-20.98 799.92-22 797.87-22L797.87-22Q796.07-22 794.79-21.5 793.52-21 792.84-20.13 792.17-19.25 792.17-18.15L792.17-18.15Q792.17-17.05 792.92-16.13 793.67-15.2 795.72-14.8L795.72-14.8 801.97-13.5Q805.47-12.8 806.87-11.2 808.27-9.6 808.27-7.3L808.27-7.3Q808.27-4.95 807.02-3.18 805.77-1.4 803.52-0.45 801.27 0.5 798.32 0.5Z" opacity="1" transform="matrix(1,0,0,1,0,0)" fill="#ffffff" class="slogan-text-1" data-fill-palette-color="quaternary" id="text-1"></path></svg></g></svg></g></svg></g></svg></g><g></g></svg></g><defs></defs></svg><rect width="356.12052" height="107.81673244581008" fill="none" stroke="none" visibility="hidden"></rect></g></svg></g></svg>